<svg xmlns="http://www.w3.org/2000/svg" xml:space="preserve" viewBox="0 0 32 32">
  <path fill="#2D2220" d="M26 7v13H15.5c-.28 0-.5-.22-.5-.5s.22-.5.5-.5H25V8H7v11h1.5c.28 0 .5.22.5.5s-.22.5-.5.5H6V7h20z"/>
  <path fill="#FFD561" d="M14 8h11v11H14zM12 8h1v11h-1zM10 8h1v11h-1zM1 28h30v1H1z"/>
  <path fill="#2D2220" d="M23 5.5c0 .28-.22.5-.5.5h-8c-.28 0-.5-.22-.5-.5s.22-.5.5-.5h8c.28 0 .5.22.5.5z"/>
  <path fill="#2D2220" d="m30.86 26.49-3-5a.9753.9753 0 0 0-.23-.26c.22-.29.37-.68.37-1.23V7s0-2-2-2h-2 .5c-.28 0-.5.22-.5.5s.22.5.5.5H26c.81 0 .99.55 1 1v13c0 .81-.55.99-1 1H6c-.81 0-.99-.55-1-1V7c0-.81.55-.99 1-1h16.5c.279 0 .5-.22.5-.5s-.221-.5-.5-.5H6S4 5 4 7v13s0 .66.38 1.22c-.09.07-.18.16-.24.271l-3 5c-.18.3-.19.689-.01 1 .18.319.51.509.87.509h28c.36 0 .69-.19.87-.51.18-.31.17-.7-.01-1zM2 27l3-5h22l3 5H2z"/>
  <path fill="#2D2220" d="M14 19.5c0-.276-.224-.5-.5-.5h-3c-.276 0-.5.224-.5.5s.224.5.5.5h3c.276 0 .5-.224.5-.5zM19 25.5c0-.276-.224-.5-.5-.5h-13c-.276 0-.5.224-.5.5s.224.5.5.5h13c.276 0 .5-.224.5-.5zM23 25.5c0-.276-.224-.5-.5-.5h-1c-.276 0-.5.224-.5.5s.224.5.5.5h1c.276 0 .5-.224.5-.5zM27 25.5c0-.276-.224-.5-.5-.5h-1c-.276 0-.5.224-.5.5s.224.5.5.5h1c.276 0 .5-.224.5-.5zM25 23.5c0-.276-.224-.5-.5-.5h-9c-.276 0-.5.224-.5.5s.224.5.5.5h9c.276 0 .5-.224.5-.5zM13 23.5c0-.276-.224-.5-.5-.5h-1c-.276 0-.5.224-.5.5s.224.5.5.5h1c.276 0 .5-.224.5-.5zM9 23.5c0-.276-.224-.5-.5-.5h-1c-.276 0-.5.224-.5.5s.224.5.5.5h1c.276 0 .5-.224.5-.5z"/>
</svg>
